<?xml version="1.0" encoding="utf-8"?>
<!-- Generator: Adobe Illustrator 21.0.2, SVG Export Plug-In . SVG Version: 6.00 Build 0)  -->
<svg version="1.1" id="Layer_1" xmlns="http://www.w3.org/2000/svg" xmlns:xlink="http://www.w3.org/1999/xlink" x="0px" y="0px"
	 viewBox="0 0 100 100" style="enable-background:new 0 0 100 100;" xml:space="preserve">
<style type="text/css">
	.st0{fill:#6998E2;}
</style>
<path class="st0" d="M92.1,48.6H78.2c0.9-3.9,4.2-6.7,8.2-6.7c1.1,0,1.8-0.7,1.8-1.8c0-1.1-0.7-1.8-1.8-1.8c-6,0-11,4.4-11.7,10.2
	H62.4c-0.2-2.1-1.1-4-2.3-5.8l8.8-8.8c4.7,3.5,11.4,3,15.6-1.2c0.7-0.7,0.7-1.8,0-2.5s-1.8-0.7-2.5,0c-2.8,2.8-7.4,3.3-10.5,1.1
	l9.8-9.8c0.7-0.7,0.7-1.8,0-2.5s-1.8-0.7-2.5,0l-10,9.8c-2.1-3.3-1.8-7.7,1.1-10.5c0.7-0.7,0.7-1.8,0-2.5s-1.8-0.7-2.5,0
	c-4.2,4.2-4.7,10.9-1.1,15.6l-8.8,8.8c-1.6-1.2-3.5-2.1-5.6-2.5V25.5c5.8-0.9,10.2-5.8,10.2-11.7c0-1.1-0.7-1.8-1.8-1.8
	c-1.1,0-1.8,0.7-1.8,1.8c0,4-2.8,7.5-6.7,8.2v-14c0-1.1-0.7-1.8-1.8-1.8c-1.1,0-1.8,0.7-1.8,1.8v13.8c-3.9-0.9-6.7-4.2-6.7-8.2
	c0-1.1-0.7-1.8-1.8-1.8s-1.8,0.7-1.8,1.8c0,6,4.4,11,10.2,11.7v12.3c-2.1,0.2-4,1.1-5.8,2.3l-8.8-8.8c3.5-4.7,3.2-11.4-1.1-15.6
	c-0.7-0.7-1.8-0.7-2.5,0c-0.7,0.7-0.7,1.8,0,2.5c2.8,2.8,3.3,7.4,1.1,10.7l-10-9.8c-0.7-0.7-1.8-0.7-2.5,0c-0.7,0.7-0.7,1.8,0,2.5
	l9.8,9.8c-3.3,2.1-7.7,1.8-10.5-1.1c-0.7-0.7-1.8-0.7-2.5,0s-0.7,1.8,0,2.5c4.2,4.2,10.9,4.7,15.6,1.2l8.8,8.8
	c-1.2,1.6-2.1,3.5-2.5,5.6H25.5c-0.9-6-6-10.3-11.9-10.3c-1.1,0-1.8,0.7-1.8,1.8c0,1.1,0.7,1.8,1.8,1.8c4,0,7.5,2.8,8.2,6.7H7.9
	c-1.1,0-1.8,0.7-1.8,1.8c0,1.1,0.7,1.8,1.8,1.8h13.8c-0.9,3.9-4.2,6.7-8.2,6.7c-1.1,0-1.8,0.7-1.8,1.8s0.7,1.8,1.8,1.8
	c6,0,11-4.4,11.7-10.2h12.3c0.2,2.1,1.1,4,2.3,5.8l-8.8,8.8c-4.7-3.5-11.4-3.2-15.6,1.2c-0.7,0.7-0.7,1.8,0,2.5
	c0.7,0.7,1.8,0.7,2.5,0c2.8-2.8,7.4-3.3,10.5-1.1l-9.8,9.8c-0.7,0.7-0.7,1.8,0,2.5c0.4,0.4,0.9,0.5,1.2,0.5c0.4,0,0.9-0.2,1.2-0.5
	l9.8-9.8c0.9,1.4,1.4,3,1.4,4.6c0,2.3-0.9,4.4-2.5,6c-0.7,0.7-0.7,1.8,0,2.5c0.7,0.7,1.8,0.7,2.5,0c2.3-2.3,3.5-5.3,3.5-8.4
	c0-2.6-0.9-5.1-2.3-7.2l8.8-8.8c1.6,1.2,3.5,2.1,5.6,2.5v12.4c-5.8,0.9-10.2,5.8-10.2,11.7c0,1.1,0.7,1.8,1.8,1.8
	c1.1,0,1.8-0.7,1.8-1.8c0-4,2.8-7.5,6.7-8.2v14c0,1.1,0.7,1.8,1.8,1.8c1.1,0,1.8-0.7,1.8-1.8V78.2c3.9,0.9,6.7,4.2,6.7,8.2
	c0,1.1,0.7,1.8,1.8,1.8s1.8-0.7,1.8-1.8c0-6-4.4-11-10.2-11.7V62.4c2.1-0.2,4-1.1,5.6-2.3l8.8,8.8c-3.5,4.7-3.2,11.4,1.2,15.6
	c0.7,0.7,1.8,0.7,2.5,0s0.7-1.8,0-2.5c-2.8-2.8-3.3-7.4-1.1-10.5l9.8,9.8c0.7,0.7,1.8,0.7,2.5,0c0.7-0.7,0.7-1.8,0-2.5l-9.6-10
	c3.3-2.1,7.7-1.8,10.5,1.1c0.7,0.7,1.8,0.7,2.5,0c0.7-0.7,0.7-1.8,0-2.5c-4.2-4.2-10.9-4.7-15.6-1.2l-8.8-8.8
	c1.2-1.6,2.1-3.5,2.5-5.6h12.4c0.9,5.8,5.8,10.2,11.7,10.2c1.1,0,1.8-0.7,1.8-1.8s-0.7-1.8-1.8-1.8c-4,0-7.5-2.8-8.2-6.7h14
	c1.1,0,1.8-0.7,1.8-1.8C93.8,49.1,93.1,48.6,92.1,48.6z M56.1,56.5c-3.5,3.3-9.1,3.2-12.4-0.4c-3.5-3.7-3-9.3,0.4-12.4
	C52.6,35.3,64.4,48.6,56.1,56.5z"/>
</svg>
