<?xml version="1.0" encoding="utf-8"?>
<!-- Generator: Adobe Illustrator 21.0.2, SVG Export Plug-In . SVG Version: 6.00 Build 0)  -->
<svg version="1.1" id="Layer_1" xmlns="http://www.w3.org/2000/svg" xmlns:xlink="http://www.w3.org/1999/xlink" x="0px" y="0px"
	 viewBox="0 0 100 100" style="enable-background:new 0 0 100 100;" xml:space="preserve">
<style type="text/css">
	.st0{fill:#6998E2;}
</style>
<path class="st0" d="M88.6,70.3l-6-3.4c0.7-0.4,1.4-0.5,2.4-0.5c1.1,0,1.8-0.9,1.6-2c0-1.1-0.9-1.8-2-1.6c-2.4,0.2-4.3,0.9-5.6,2.2l-6.3-3.6
	c1.4-1.3,3.4-2,5.8-2.2c1.1,0,1.8-0.9,1.6-2c0-1.1-0.9-1.8-2-1.6c-3.8,0.2-6.9,1.6-8.9,3.8l-6-3.4c1.4-1.8,3.8-3.1,6.5-3.8
	c1.3,0.4,2.7,0.5,4.2,0.5c2.5,0.2,2.5-5.1,0-4.9c-1.4,0-2.7,0.4-4,0.5c-2.7-0.7-4.9-2-6.3-3.8l6-3.4c2,2.4,5.1,3.6,8.9,3.8
	c0.9,0.2,1.8-0.7,2-1.6c0-1.1-0.7-1.8-1.6-2c-2.5-0.2-4.5-0.9-5.8-2.2l6.3-3.6c1.3,1.3,3.3,2.2,5.6,2.2c0.9,0.2,1.8-0.7,2-1.6
	c0-1.1-0.7-1.8-1.6-2c-0.9,0-1.8-0.2-2.4-0.5l6-3.4c0.9-0.5,1.1-1.6,0.7-2.5c-0.5-0.9-1.6-1.1-2.5-0.7l-6.3,3.6
	c0-0.7,0.2-1.4,0.7-2.4c0.4-0.9,0.2-2-0.7-2.4c-0.9-0.4-2-0.2-2.4,0.7c-1.1,2.2-1.3,4.2-0.9,6l-6.3,3.6c-0.4-1.8,0-4,1.1-6.2
	c0.4-0.9,0.2-2-0.7-2.4c-0.9-0.4-2-0.2-2.4,0.7c-1.8,3.4-2,6.7-1.1,9.6l-6,3.4c-1.3-2.2-1.3-4.7-0.5-7.4c0.9-0.9,1.8-2,2.5-3.3
	c1.4-2.4-3.1-4.7-4.3-2.4c-0.7,1.3-1.1,2.5-1.4,3.8c-2,2-4.2,3.3-6.5,3.6v-6.9c2.9-0.5,5.6-2.5,7.8-5.8c0.5-0.9,0.4-2-0.5-2.5
	c-0.9-0.5-2-0.4-2.5,0.5c-1.3,2-2.9,3.4-4.7,4v-7.4c1.8-0.4,3.6-1.8,4.9-3.6c0.5-0.9,0.4-2-0.5-2.5c-0.9-0.5-2-0.4-2.5,0.5
	c-0.5,0.7-1.1,1.4-1.6,1.8V6.5c0-1.1-0.7-1.8-1.8-1.8c-1.1,0-1.8,0.7-1.8,1.8v6.9c-0.5-0.4-1.3-0.9-1.6-1.8
	c-0.5-0.9-1.6-1.1-2.5-0.5s-1.1,1.6-0.5,2.5c1.1,2,2.7,3.4,4.5,3.8v7.2c-1.8-0.5-3.4-2-4.7-4c-0.5-0.9-1.6-1.1-2.5-0.5
	c-0.9,0.5-1.1,1.6-0.5,2.5c2.2,3.3,4.7,5.3,7.8,5.8v7.1c-2.4-0.4-4.5-1.6-6.5-3.6c-0.4-1.3-0.9-2.5-1.6-3.8
	c-1.3-2.4-5.6,0.4-4.2,2.5c0.7,1.3,1.6,2.2,2.5,3.3c0.7,2.7,0.7,5.3-0.2,7.4l-6-3.4c0.9-2.9,0.5-6.2-1.1-9.6
	c-0.4-0.9-1.6-1.3-2.4-0.7c-0.9,0.5-1.3,1.6-0.7,2.4c1.1,2.2,1.4,4.3,1.1,6.2l-6.3-3.6c0.5-1.8,0.2-4-0.9-6
	c-0.4-0.9-1.6-1.3-2.4-0.7c-0.9,0.5-1.3,1.6-0.7,2.4c0.4,0.9,0.7,1.6,0.7,2.4l-6-3.4c-0.9-0.5-2-0.2-2.5,0.7s-0.2,2,0.7,2.5l6,3.4
	c-0.7,0.4-1.4,0.5-2.4,0.5c-1.1,0-1.8,0.9-1.6,2c0,0.9,0.9,1.6,1.8,1.6c1.8,0,4.2-0.7,5.8-2.2l6.3,3.6c-1.4,1.3-3.4,2-5.8,2.2
	c-1.1,0-1.8,0.9-1.6,2c0,0.9,0.9,1.6,1.8,1.6c3.1,0,6.7-1.3,8.9-3.8l6,3.4c-1.4,1.8-3.8,3.1-6.5,3.8c-1.3-0.4-2.7-0.5-4.2-0.5
	c-2.7-0.2-2.5,4.9,0,4.9c0.7,0,2.4-0.2,4.2-0.5c2.7,0.7,4.9,2,6.3,3.8l-6.3,2.9c-2-2.4-5.1-3.6-8.9-3.8c-0.9,0-1.8,0.7-2,1.6
	c-0.2,0.9,0.7,1.8,1.6,2c2.5,0.2,4.5,0.9,5.8,2.2l-6.3,3.6c-1.3-1.3-3.3-2.2-5.6-2.2c-1.1-0.2-1.8,0.7-2,1.6c0,1.1,0.7,1.8,1.6,2
	c0.9,0,1.8,0.2,2.4,0.5l-6,3.4c-0.9,0.5-1.1,1.6-0.7,2.5c0.5,0.9,1.6,1.1,2.5,0.7l6.3-3.6c0,0.7-0.2,1.4-0.7,2.4
	c-0.4,0.9-0.2,2,0.7,2.4s2,0.2,2.4-0.7c1.1-2.2,1.3-4.2,0.9-6l6.3-3.6c0.4,1.8,0,4-1.1,6.2c-0.4,0.9-0.2,2,0.7,2.4
	c0.9,0.4,2,0.2,2.4-0.7c1.8-3.4,2-6.7,1.1-9.6l6-3.4c0.7,2.2,0.9,4.7,0.2,7.6c-0.9,0.9-1.8,2-2.5,3.3c-1.4,2.4,3.1,4.7,4.3,2.4
	c0.7-1.3,1.1-2.5,1.4-3.8c2-2,4.2-3.3,6.5-3.6v6.9c-2.9,0.5-5.6,2.5-7.8,5.8c-0.5,0.9-0.4,2,0.5,2.5c0.9,0.5,2,0.4,2.5-0.5
	c1.3-2,3.1-3.4,4.7-4v7.2c-1.8,0.5-3.4,1.8-4.7,3.8c-0.5,0.9-0.4,2,0.5,2.5c0.9,0.5,2,0.4,2.5-0.5c0.5-0.7,1.1-1.4,1.6-1.8v6.9
	c0,1.1,0.7,1.8,1.8,1.8s1.8-0.7,1.8-1.8v-6.9c0.5,0.4,1.3,0.9,1.6,1.8c0.5,0.9,1.6,1.1,2.5,0.5c0.9-0.5,1.1-1.6,0.5-2.5
	c-0.9-2-2.5-3.4-4.3-3.8v-7.2c1.8,0.5,3.4,2,4.7,4c0.5,0.9,1.6,1.1,2.5,0.5c0.9-0.5,1.1-1.6,0.5-2.5c-2.2-3.3-4.7-5.3-7.8-5.8v-7.1
	c2.4,0.4,4.5,1.6,6.5,3.6c0.4,1.3,0.9,2.5,1.6,3.8c1.3,2.5,5.6-0.4,4.2-2.5c-0.7-1.3-1.6-2.2-2.5-3.3c-0.7-2.7-0.7-5.3,0.2-7.4
	l6,3.4c-0.9,2.9-0.5,6.2,1.1,9.6c0.5,0.9,1.6,1.3,2.4,0.7c0.9-0.5,1.3-1.6,0.7-2.4c-1.1-2.2-1.4-4.3-1.1-6.2l6.3,3.6
	c-0.5,1.8-0.2,4,0.9,6c0.5,0.9,1.6,1.3,2.4,0.7c0.9-0.4,1.3-1.6,0.7-2.4c-0.4-0.9-0.7-1.6-0.7-2.4l6,3.4c0.9,0.5,2,0.2,2.5-0.7
	C89.7,71.9,89.3,70.6,88.6,70.3z M64.9,50c-1.8,1.1-3.4,2.4-4.5,4l-6.2-3.4c-0.2-0.2-0.4-0.4-0.5-0.4l6.7-3.8
	C61.6,47.8,63,49.1,64.9,50z M57.4,37.1c0,2.2,0.4,4.2,1.1,6l-6.2,3.4c-0.2,0-0.4,0.2-0.5,0.2v-7.6C53.8,38.8,55.8,38.2,57.4,37.1z
	 M42.6,37.1c1.8,1.1,3.6,1.8,5.6,2v7.1c0,0.2-0.2,0.4-0.2,0.5l-6.7-3.8C42.2,41.1,42.6,39.1,42.6,37.1z M35.1,50
	c1.8-1.1,3.4-2.4,4.5-4l6.2,3.4c0.2,0.2,0.4,0.4,0.4,0.4l-6.7,3.8C38.4,52.2,37,50.9,35.1,50z M42.6,62.9c0-2.2-0.4-4.2-1.1-6
	l6.2-3.6c0.2,0,0.4,0,0.5-0.2v7.8C46.2,61.2,44.2,61.8,42.6,62.9z M57.4,62.9c-1.8-1.1-3.6-1.8-5.6-2v-7.1c0-0.2,0.2-0.4,0.2-0.5
	l6.7,3.8C57.8,58.9,57.4,60.9,57.4,62.9z"/>
</svg>
