<?xml version="1.0" encoding="utf-8"?>
<!-- Generator: Adobe Illustrator 21.0.2, SVG Export Plug-In . SVG Version: 6.00 Build 0)  -->
<svg version="1.1" id="Layer_1" xmlns="http://www.w3.org/2000/svg" xmlns:xlink="http://www.w3.org/1999/xlink" x="0px" y="0px"
	 viewBox="0 0 100 100" style="enable-background:new 0 0 100 100;" xml:space="preserve">
<style type="text/css">
	.st0{fill:#6998E2;}
</style>
<g>
	<path class="st0" d="M59.7,55.5h8.6c3.1,0,5.5-2.6,5.5-5.5s-2.6-5.5-5.5-5.5h-8.4l4.2-7.3c1.5-2.6,0.5-6-2-7.5
		c-0.9-0.5-1.8-0.7-2.7-0.7c-2,0-3.8,1.1-4.8,2.7L50.4,39l-4.2-7.3c-1.5-2.6-4.9-3.5-7.5-2c-2.6,1.5-3.7,4.8-2,7.5l4.2,7.3h-8.6
		c-3.1,0-5.5,2.6-5.5,5.5s2.6,5.5,5.5,5.5h8.6L36.5,63c-1.6,2.7-0.5,6,2,7.5c2.7,1.6,6,0.5,7.5-2l4.4-7.5l4.4,7.5
		c1.5,2.6,4.9,3.5,7.5,2c2.6-1.5,3.5-4.9,2-7.5L59.7,55.5z M60.2,67.4c-0.9,0.5-2,0.2-2.6-0.7l-5.9-10.2c-0.4-0.5-0.9-0.9-1.6-0.9
		l0,0c-0.7,0-1.3,0.4-1.6,0.9l-5.9,10.2c-0.5,0.9-1.6,1.3-2.6,0.7c-0.9-0.5-1.3-1.6-0.7-2.6l5.9-10.2c0.4-0.5,0.4-1.3,0-1.8
		s-0.9-0.9-1.5-0.9H31.9c-1.1,0-1.8-0.9-1.8-1.8s0.9-1.8,1.8-1.8h11.9c0.7,0,1.3-0.4,1.6-0.9c0.4-0.5,0.4-1.3,0-1.8l-5.9-10.1
		c-0.5-0.9-0.2-2,0.7-2.6s2-0.2,2.6,0.7l5.9,10.1c0.7,1.1,2.6,1.1,3.1,0l5.9-10.1c0.5-0.9,1.6-1.3,2.6-0.7c0.9,0.5,1.3,1.6,0.7,2.6
		l-5.9,10.1c-0.4,0.5-0.4,1.3,0,1.8s0.9,0.9,1.6,0.9h11.5c1.1,0,1.8,0.9,1.8,1.8c0,1.1-0.9,1.8-1.8,1.8H56.6c-0.7,0-1.3,0.4-1.6,0.9
		s-0.4,1.3,0,1.8l5.9,10.2C61.3,65.7,61.2,66.8,60.2,67.4z"/>
	<path class="st0" d="M38.5,15.4c1.1-0.4,2.2-0.4,3.1,0.2c3.7,2.2,6,9.9,6.8,12.6c0.4,2,3.1,1.8,3.7,0c0.5-2.7,2.9-10.6,6.8-12.6
		c1.1-0.5,2-0.7,3.1-0.2c0.9,0.4,2-0.2,2.4-1.1c0.4-0.9-0.2-2-1.1-2.4C61,11.2,59,11.4,57,12.5c-3.1,1.8-5.3,5.9-6.8,9.3
		c-1.3-3.5-3.5-7.5-6.8-9.3c-1.8-1.1-4-1.3-6.2-0.5c-0.9,0.4-1.5,1.3-1.1,2.4C36.5,15.2,37.4,15.8,38.5,15.4z"/>
	<path class="st0" d="M50,14.1c1.1,0,1.8-0.7,1.8-1.8V6.1c0-1.1-0.7-1.8-1.8-1.8S48.2,5,48.2,6.1v6.2C48.2,13.4,49.1,14.1,50,14.1z"
		/>
	<path class="st0" d="M14.3,37c-1.8,1.1-3.1,2.9-3.5,5.1c-0.2,0.9,0.4,2,1.5,2.2c0.9,0.2,2-0.4,2.2-1.5c0.2-1.1,0.7-2,1.8-2.6
		c3.7-2.2,11.5-0.4,14.3,0.5c0.7,0.2,1.6,0,2-0.7c0.4-0.7,0.4-1.6-0.4-2.4c-2.2-2-7.7-7.9-7.7-12.1c0-1.1,0.4-2,1.3-2.9
		c0.7-0.7,0.9-1.8,0.2-2.6s-1.8-0.9-2.6-0.2c-1.6,1.5-2.6,3.5-2.6,5.7c0,3.7,2.4,7.5,4.8,10.4C22,35.4,17.4,35.2,14.3,37z"/>
	<path class="st0" d="M11,29.5l5.3,3.1c0.9,0.5,2,0.2,2.6-0.7c0.5-0.9,0.2-2-0.7-2.6l-5.3-3.1c-0.9-0.5-2-0.2-2.6,0.7
		C9.9,27.9,10.3,29.1,11,29.5z"/>
	<path class="st0" d="M30.4,59.1c-4.2,1.5-15,3.5-16.1-2c-0.2-0.9-1.1-1.6-2.2-1.5c-0.9,0.2-1.6,1.1-1.5,2.2c1.3,6.4,8.4,7.1,15,6.2
		c-4,5.1-7.1,11.7-2.2,16.1c0.7,0.7,1.8,0.5,2.6-0.2c0.7-0.7,0.5-1.8-0.2-2.6c-4.2-3.7,2.6-11.7,6.2-15C33.7,61,32.3,58.6,30.4,59.1
		z"/>
	<path class="st0" d="M16.3,67.2L11,70.3c-0.9,0.5-1.1,1.6-0.7,2.6c0.5,0.9,1.6,1.1,2.6,0.7l5.3-3.1c0.9-0.5,1.1-1.6,0.7-2.6
		C18.3,67,17.2,66.7,16.3,67.2z"/>
	<path class="st0" d="M61.5,84.6c-1.1,0.4-2.2,0.4-3.1-0.2c-3.7-2.2-6-9.9-6.8-12.6c-0.4-1.8-3.1-1.8-3.7,0
		c-0.9,4.6-4.6,14.8-9.9,13c-0.9-0.4-2,0.2-2.4,1.1c-0.4,0.9,0.2,2,1.1,2.4c6.2,2.2,10.4-3.7,12.8-9.9c1.3,3.5,3.5,7.5,6.8,9.3
		c1.8,1.1,4,1.3,6.2,0.5c0.9-0.4,1.5-1.3,1.1-2.4C63.5,84.8,62.6,84.2,61.5,84.6z"/>
	<path class="st0" d="M50,85.9c-1.1,0-1.8,0.7-1.8,1.8v6.2c0,1.1,0.7,1.8,1.8,1.8s1.8-0.7,1.8-1.8v-6.2C51.8,86.6,50.9,85.9,50,85.9
		z"/>
	<path class="st0" d="M89.3,57.9c0.2-0.9-0.4-2-1.5-2.2c-0.9-0.2-2,0.4-2.2,1.5c-1.1,5.3-11.5,3.7-16.1,2c-2-0.5-3.1,1.8-1.8,3.1
		c3.3,3.1,10.6,11.3,6.2,15c-0.7,0.7-0.9,1.8-0.2,2.6s1.8,0.9,2.6,0.2c4.9-4.4,2-11-2.2-16.1C80.9,65.2,88.1,64.5,89.3,57.9z"/>
	<path class="st0" d="M89,70.5l-5.3-3.1c-0.9-0.5-2-0.2-2.6,0.7c-0.5,0.9-0.2,2,0.7,2.6l5.3,3.1c0.9,0.5,2,0.2,2.6-0.7
		C90.1,72.1,89.7,70.9,89,70.5z"/>
	<path class="st0" d="M69.6,40.9c2.7-0.9,10.6-2.7,14.3-0.5c0.9,0.5,1.6,1.5,1.8,2.6c0.2,0.9,1.1,1.6,2.2,1.5
		c0.9-0.2,1.6-1.1,1.5-2.2c-0.4-2.2-1.6-3.8-3.5-5.1c-3.1-1.8-7.7-1.6-11.3-1.1c2.4-2.9,4.8-6.8,4.8-10.4c0-2.2-0.9-4.2-2.6-5.7
		c-0.7-0.7-1.8-0.5-2.6,0.2c-0.7,0.7-0.5,1.8,0.2,2.6c0.9,0.7,1.3,1.6,1.3,2.9c0,4.2-5.5,10.2-7.7,12.3C66.3,39,67.7,41.4,69.6,40.9
		z"/>
	<path class="st0" d="M83.7,32.8l5.3-3.1c0.9-0.5,1.1-1.6,0.7-2.6c-0.5-0.9-1.6-1.1-2.6-0.7l-5.3,3.1c-0.9,0.5-1.1,1.6-0.7,2.6
		C81.7,33,82.8,33.3,83.7,32.8z"/>
</g>
</svg>
