<?xml version="1.0" encoding="utf-8"?>
<!-- Generator: Adobe Illustrator 21.0.2, SVG Export Plug-In . SVG Version: 6.00 Build 0)  -->
<svg version="1.1" id="Layer_1" xmlns="http://www.w3.org/2000/svg" xmlns:xlink="http://www.w3.org/1999/xlink" x="0px" y="0px"
	 viewBox="0 0 100 100" style="enable-background:new 0 0 100 100;" xml:space="preserve">
<style type="text/css">
	.st0{fill:#6998E2;}
</style>
<path class="st0" d="M10.3,72.8c0.5,0.8,1.3,1.4,2.2,1.7c0.9,0.2,1.9,0.1,2.7-0.4l6.6-3.8v7.6c0,1,0.4,1.9,1.1,2.6c0.7,0.7,1.6,1.1,2.6,1.1
	c1,0,1.9-0.4,2.6-1.1c0.7-0.7,1.1-1.6,1.1-2.6V66.2l8.4-4.8l8.4,4.8v9.7l-10.2,5.9c-0.8,0.5-1.4,1.3-1.7,2.2
	c-0.2,0.9-0.1,1.9,0.4,2.8c0.5,0.8,1.3,1.4,2.2,1.7c0.9,0.2,1.9,0.1,2.8-0.4l6.6-3.8v7.6c0,1,0.4,1.9,1.1,2.6
	c0.7,0.7,1.6,1.1,2.6,1.1c1,0,1.9-0.4,2.6-1.1c0.7-0.7,1.1-1.6,1.1-2.6v-7.6l6.6,3.8c0.4,0.2,0.9,0.4,1.3,0.5c0.5,0.1,1,0,1.4-0.1
	c0.5-0.1,0.9-0.3,1.3-0.6c0.4-0.3,0.7-0.7,0.9-1.1c0.2-0.4,0.4-0.9,0.5-1.3c0.1-0.5,0-1-0.1-1.4c-0.1-0.5-0.3-0.9-0.6-1.3
	c-0.3-0.4-0.7-0.7-1.1-0.9l-10.2-5.9v-9.7l8.4-4.8l8.4,4.8v11.8c0,1,0.4,1.9,1.1,2.6c0.7,0.7,1.6,1.1,2.6,1.1s1.9-0.4,2.6-1.1
	c0.7-0.7,1.1-1.6,1.1-2.6v-7.6l6.6,3.8c0.4,0.2,0.9,0.4,1.3,0.5c0.5,0.1,1,0,1.4-0.1c0.5-0.1,0.9-0.3,1.3-0.6
	c0.4-0.3,0.7-0.7,0.9-1.1c0.2-0.4,0.4-0.9,0.5-1.3c0.1-0.5,0-1-0.1-1.4s-0.3-0.9-0.6-1.3c-0.3-0.4-0.7-0.7-1.1-0.9l-6.6-3.8l6.6-3.8
	c0.4-0.2,0.8-0.6,1.1-0.9c0.3-0.4,0.5-0.8,0.6-1.3s0.2-0.9,0.1-1.4c-0.1-0.5-0.2-0.9-0.5-1.3c-0.2-0.4-0.6-0.8-0.9-1.1
	c-0.4-0.3-0.8-0.5-1.3-0.6c-0.5-0.1-0.9-0.2-1.4-0.1c-0.5,0.1-0.9,0.2-1.3,0.5l-10.2,5.9l-8.4-4.8v-9.7l8.4-4.8l10.2,5.9
	c0.4,0.2,0.9,0.4,1.3,0.5c0.5,0.1,1,0,1.4-0.1c0.5-0.1,0.9-0.3,1.3-0.6c0.4-0.3,0.7-0.7,0.9-1.1c0.2-0.4,0.4-0.9,0.5-1.3
	c0.1-0.5,0-1-0.1-1.4c-0.1-0.5-0.3-0.9-0.6-1.3c-0.3-0.4-0.7-0.7-1.1-0.9l-6.6-3.8l6.6-3.8c0.8-0.5,1.4-1.3,1.7-2.2
	c0.2-0.9,0.1-1.9-0.4-2.8c-0.5-0.8-1.3-1.4-2.2-1.7c-0.9-0.2-1.9-0.1-2.7,0.4l-6.6,3.8v-7.6c0-1-0.4-1.9-1.1-2.6
	c-0.7-0.7-1.6-1.1-2.6-1.1s-1.9,0.4-2.6,1.1c-0.7,0.7-1.1,1.6-1.1,2.6v11.8l-8.4,4.8l-8.4-4.8v-9.7l10.2-5.9
	c0.4-0.2,0.8-0.6,1.1-0.9c0.3-0.4,0.5-0.8,0.6-1.3c0.1-0.5,0.2-0.9,0.1-1.4c-0.1-0.5-0.2-0.9-0.5-1.3c-0.2-0.4-0.6-0.8-0.9-1.1
	c-0.4-0.3-0.8-0.5-1.3-0.6C61.9,12,61.5,12,61,12s-0.9,0.2-1.3,0.5l-6.6,3.8V8.7c0-1-0.4-1.9-1.1-2.6c-0.7-0.7-1.6-1.1-2.6-1.1
	c-1,0-1.9,0.4-2.6,1.1c-0.7,0.7-1.1,1.6-1.1,2.6v7.6l-6.6-3.8c-0.8-0.5-1.8-0.6-2.8-0.4c-0.9,0.2-1.7,0.9-2.2,1.7
	c-0.5,0.8-0.6,1.8-0.4,2.8c0.2,0.9,0.9,1.7,1.7,2.2l10.2,5.9v9.7l-8.4,4.8l-8.4-4.8V22.5c0-1-0.4-1.9-1.1-2.6
	c-0.7-0.7-1.6-1.1-2.6-1.1c-1,0-1.9,0.4-2.6,1.1c-0.7,0.7-1.1,1.6-1.1,2.6v7.6l-6.6-3.8c-0.4-0.2-0.9-0.4-1.3-0.5
	c-0.5-0.1-1,0-1.4,0.1c-0.5,0.1-0.9,0.3-1.3,0.6c-0.4,0.3-0.7,0.7-0.9,1.1c-0.5,0.8-0.6,1.8-0.4,2.8c0.2,0.9,0.9,1.7,1.7,2.2
	l6.6,3.8l-6.6,3.8c-0.8,0.5-1.4,1.3-1.7,2.2c-0.2,0.9-0.1,1.9,0.4,2.8c0.5,0.8,1.3,1.4,2.2,1.7c0.9,0.2,1.9,0.1,2.8-0.4l10.2-5.9
	l8.4,4.8v9.7l-8.4,4.8L15.3,54c-0.8-0.5-1.8-0.6-2.8-0.4c-0.9,0.2-1.7,0.9-2.2,1.7c-0.5,0.8-0.6,1.8-0.4,2.8
	c0.2,0.9,0.9,1.7,1.7,2.2l6.6,3.8l-6.6,3.8c-0.4,0.2-0.8,0.6-1.1,0.9c-0.3,0.4-0.5,0.8-0.6,1.3c-0.1,0.5-0.2,0.9-0.1,1.4
	C9.9,72,10.1,72.4,10.3,72.8z M41.1,45.4l8.4-4.8l8.4,4.8v9.7l-8.4,4.8l-8.4-4.8V45.4z"/>
</svg>
