<?xml version="1.0" encoding="utf-8"?>
<!-- Generator: Adobe Illustrator 21.0.2, SVG Export Plug-In . SVG Version: 6.00 Build 0)  -->
<svg version="1.1" id="Layer_1" xmlns="http://www.w3.org/2000/svg" xmlns:xlink="http://www.w3.org/1999/xlink" x="0px" y="0px"
	 viewBox="0 0 100 100" style="enable-background:new 0 0 100 100;" xml:space="preserve">
<style type="text/css">
	.st0{fill:#6998E2;}
</style>
<path class="st0" d="M64.2,42.8l1.7-1c2.2,3.6,4.8,6.7,7.1,6.7l0,0c0.5,0,0.9-0.2,1.4-0.3c6.9-4.3,11.6-11.2,13.3-19.5
	c0.2-0.9-0.3-1.7-1.2-2.1C78.5,24,70,24.6,62.8,28.4c-1.4,0.7-1.6,2.2-1,4.7c0.3,1.4,1.2,3.5,2.4,5.7l-1.9,1l-10.5-6v-2.2
	c6.4-0.2,9.7-1.6,9.7-4c-0.3-8.1-4-15.7-10.2-21.2c-0.7-0.5-1.7-0.5-2.2,0c-6.2,5.7-9.8,13.3-10.2,21.4c0,2.4,3.3,3.8,9.7,4V34
	l-10.5,6L36,38.8c1-2.1,1.9-4.1,2.4-5.5c0.7-2.4,0.3-4-1-4.7c-7.1-3.8-15.5-4.5-23.5-1.9c-0.9,0.3-1.4,1.2-1.2,2.1
	c1.6,8.1,6.2,15,13.1,19.3c2.9,1.7,6.6-3.5,8.3-6.4l1.7,1V55L34,56c-2.2-3.6-4.8-6.7-7.1-6.7c-0.5,0-0.9,0.2-1.4,0.3
	c-6.6,4.5-11.4,11.4-13.1,19.7c-0.2,0.9,0.3,1.7,1.2,2.1c8.1,2.6,16.6,1.9,23.6-1.9c1.4-0.7,1.6-2.2,1-4.7c-0.3-1.4-1.2-3.5-2.4-5.7
	l1.6-0.9l10.9,6.2v1.9c-6.4,0.2-9.7,1.6-9.7,4c0.3,8.1,4,15.7,10.2,21.2c0.3,0.3,0.7,0.5,1.2,0.5s0.9-0.2,1.2-0.5
	c6.2-5.7,9.8-13.3,10.2-21.4c0-2.4-3.3-3.8-9.7-4v-1.7l10.9-6.2l1.6,0.9c-1,2.1-1.9,4.1-2.4,5.5c-0.7,2.4-0.3,4,1,4.7
	c7.1,3.8,15.4,4.5,23.5,1.9c0.9-0.3,1.4-1.2,1.2-2.1c-1.7-8.1-6.4-15-13.3-19.3c-0.3-0.2-0.9-0.3-1.2-0.3c-2.1,0-4.8,3.1-7.1,6.7
	l-1.7-0.9V42.8z M65,31.4c5.7-2.9,12.4-3.5,18.8-1.9c-1.7,6.6-5.7,11.9-11,15.4c-1-0.5-2.4-2.6-4-4.8l1.6-0.9l4.5,0.5
	c0.9,0.2,1.7-0.5,1.9-1.6c0.2-0.9-0.5-1.7-1.6-1.9l-2.9-0.3l1-2.8c0.3-0.9,0-1.9-0.9-2.2c-0.9-0.3-1.9,0-2.2,0.9L68.5,36l-1.2,1
	C65.9,34.6,65,32.4,65,31.4z M27.2,44.8c-5.3-3.5-9.3-9-11-15.4c6.4-1.7,13.3-1,18.8,1.9c0,1-1,3.5-2.2,5.7l-1.6-0.9l-1.7-4.1
	c-0.3-0.9-1.4-1.4-2.2-0.9c-0.9,0.3-1.4,1.4-0.9,2.2l1,2.8l-2.9,0.3c-0.9,0.2-1.6,1-1.6,1.9c0.2,0.9,0.9,1.6,1.9,1.6l4.5-0.5
	l1.6,0.9C29.6,42.2,28.3,44.3,27.2,44.8z M35,66.6c-5.7,2.9-12.4,3.5-18.8,1.9c1.7-6.6,5.7-11.9,11-15.4c1,0.5,2.4,2.6,4,4.8
	l-1.6,0.9l-4.5-0.5c-0.9-0.2-1.7,0.5-1.9,1.6c-0.2,0.9,0.5,1.7,1.6,1.9l2.9,0.3l-1,2.8c-0.3,0.9,0,1.9,0.9,2.2s1.9,0,2.2-0.9
	l1.7-4.3l1.6-0.9C34.1,63.3,35,65.5,35,66.6z M72.8,53.1c5.3,3.5,9.3,9,11,15.5c-6.7,1.7-13.3,1-18.8-1.9c0-1,1-3.5,2.2-5.9l1.6,0.9
	l1.7,4.3c0.3,0.9,1.4,1.4,2.2,0.9c0.9-0.3,1.4-1.4,0.9-2.2l-1-2.8l2.9-0.3c0.9-0.2,1.6-1,1.6-1.9s-1-1.6-1.9-1.6l-4.5,0.5l-1.6-0.9
	C70.4,55.5,71.7,53.6,72.8,53.1z M60.7,53.3l-3.5-2.1v-4.5l3.5-2.1V53.3z M50,53.5l-3.8-2.2v-4.3l3.8-2.2l3.8,2.2v4.3L50,53.5z
	 M59,41.9L55.5,44l-3.8-2.2v-4L59,41.9z M42.2,27.2c0.3-6.4,3.1-12.4,7.8-17.3c4.7,4.8,7.4,10.9,7.9,17.3c-0.9,0.3-2.9,0.9-6.2,1
	v-1.9l2.8-3.6c0.5-0.7,0.5-1.9-0.3-2.4c-0.7-0.7-1.7-0.5-2.2,0.2l-1.7,2.2l-1.7-2.2c-0.5-0.7-1.7-0.9-2.4-0.3
	c-0.7,0.5-0.9,1.7-0.3,2.4l2.8,3.6v1.9C45.2,28.1,42.9,27.6,42.2,27.2z M48.3,37.8v4l-3.6,2.1l-3.5-2.1L48.3,37.8z M39.3,44.8
	l3.5,2.1v4.3l-3.5,2.1V44.8z M40.9,56.2l3.5-2.1l4,2.2v4L40.9,56.2z M57.8,70.7C57.4,77.1,54.7,83.1,50,88
	c-4.7-4.8-7.4-10.9-7.9-17.3c0.9-0.3,2.9-0.9,6.2-1v1.9l-2.8,3.6c-0.5,0.7-0.5,1.9,0.3,2.4c0.7,0.5,1.9,0.5,2.4-0.3L50,75l1.7,2.2
	c0.5,0.7,1.7,0.9,2.4,0.3s0.9-1.7,0.3-2.4l-2.8-3.6v-1.9C54.8,69.9,57.1,70.4,57.8,70.7z M51.7,60.5v-4l4-2.2l3.5,2.1L51.7,60.5z"/>
</svg>
